<?xml version="1.0" encoding="iso-8859-1"?>
<!-- Generator: Adobe Illustrator 19.0.0, SVG Export Plug-In . SVG Version: 6.00 Build 0)  -->
<svg version="1.1" id="Layer_1" xmlns="http://www.w3.org/2000/svg" xmlns:xlink="http://www.w3.org/1999/xlink" x="0px" y="0px"
	 viewBox="0 0 512 512" style="enable-background:new 0 0 512 512;" xml:space="preserve">
<g>
	<g>
		<path d="M460.219,386.359l-1.812-0.531c-26.469-7.109-35.422-13.938-47.203-18.422c-41.797-15.922-52.672-27.406-55.453-32.812
			c-0.094-0.203-0.188-0.406-0.281-0.609l-0.25-36.969c22.359-29.93,38.344-67.289,38.344-105.984c0-0.359-0.016-0.711-0.016-1.07
			l0.016,0.016c0-0.164-0.016-0.312-0.031-0.477c-0.031-4.508-0.219-8.938-0.562-13.289c-3.562-82.43-7.109-107.75-54.938-145.789
			C309.156,7.445,274.75,0,242.289,0c-0.008,0-0.016,0-0.016,0c-59.727,0-112.836,25.203-112.836,25.203l22.852,16.016
			c0,0-83.648,55.242-62.633,193.453c0.156,1.023,0.727,1.508,1.68,1.508c3.891,0,14.203-7.969,29.383-19.602
			c5.156,29.391,18.68,57.156,36.062,80.422l-0.258,36.984c-0.094,0.203-0.172,0.406-0.273,0.609
			c-2.781,5.406-13.648,16.891-55.453,32.812c-11.781,4.484-20.734,11.312-47.211,18.422l-1.812,0.531
			c-24.094,7.953-40.305,30.297-40.305,55.531V512H256h244.531v-70.109C500.531,416.656,484.312,394.312,460.219,386.359z
			 M107.75,199.633c-0.562-16.727,0.586-32.711,3.445-47.766c3.648-19.227,10.094-37.055,19.148-52.977
			c15.039-26.438,32.555-39.062,33.766-39.914l26.523-16.945l-15.234-10.672c18.5-5.227,42.203-10.023,66.875-10.023
			c33.227,0,60.977,8.672,82.477,25.781c11.625,9.234,19.781,17.156,25.703,24.922c5.609,7.367,9.547,15.109,12.391,24.359
			c3.203,10.508,5.094,23.219,6.438,38.992l-23.844-23.914l-5.734-5.758l-8.109-0.477c-3.641-0.219-7.344-0.32-11.031-0.32
			c-21.281,0-43.688,3.617-66.555,10.75c-19.086,5.953-39.031,14.523-59.297,25.477C158.914,160.508,128.258,183.914,107.75,199.633
			z M140.273,201.781c43.547-32.242,110.258-75.523,180.289-75.531c3.25,0,6.5,0.094,9.781,0.289l40.078,40.227
			c1.203,7.828,1.797,15.93,1.797,24.266c0,35.133-15.969,73.5-43.844,105.25c-12.25,13.969-25.969,25.656-39.688,33.781
			c-12.234,7.266-23.844,11.266-32.688,11.266c-8.844,0-20.453-4-32.695-11.266c-13.711-8.125-27.43-19.812-39.68-33.781
			C158.578,267.742,143.141,233.859,140.273,201.781z M256,490.656H32.797V441.89c0-15.906,10.164-29.984,25.328-35.172l1.195-0.344
			C79.273,401,90.281,395.734,99.133,391.5c3.43-1.641,6.383-3.062,9.266-4.156c23.883-9.094,56.805-23.469,66.82-43
			c0.391-0.75,0.672-1.375,0.82-1.75l1.781-3.938l0.031-4.531l0.094-12.781c25.68,25.406,55.039,41.312,78.055,41.312
			s52.375-15.891,78.062-41.297l0.094,12.766l0.031,4.531l1.781,3.938c0.125,0.344,0.406,1,0.797,1.734
			c10.031,19.547,42.953,33.922,66.859,43.016c2.859,1.094,5.812,2.516,9.25,4.156c8.844,4.234,19.844,9.5,39.812,14.875
			l1.188,0.344c15.156,5.188,25.328,19.266,25.328,35.172v48.765H256z"/>
	</g>
</g>
<g>
</g>
<g>
</g>
<g>
</g>
<g>
</g>
<g>
</g>
<g>
</g>
<g>
</g>
<g>
</g>
<g>
</g>
<g>
</g>
<g>
</g>
<g>
</g>
<g>
</g>
<g>
</g>
<g>
</g>
</svg>
